HIERARCHY
ROOT Hips
{
  OFFSET -31.5692 30.0904 122.763
  CHANNELS 6 Xposition Yposition Zposition Zrotation Xrotation Yrotation
  JOINT LeftUpLeg
  {
    OFFSET 8.64259 1.95398 -2.38835
    CHANNELS 3 Zrotation Xrotation Yrotation
    JOINT LeftLeg
    {
      OFFSET 43.7702 0 0
      CHANNELS 3 Zrotation Xrotation Yrotation
      JOINT LeftFoot
      {
        OFFSET 40.6238 0 0
        CHANNELS 3 Zrotation Xrotation Yrotation
        JOINT LeftToeBase
        {
          OFFSET 12.7242 0 0
          CHANNELS 3 Zrotation Xrotation Yrotation
          End Site
          {
            OFFSET 0 0 0
          }
        }
      }
    }
  }
  JOINT RightUpLeg
  {
    OFFSET -8.2249 1.95398 -2.59336
    CHANNELS 3 Zrotation Xrotation Yrotation
    JOINT RightLeg
    {
      OFFSET 43.5653 0 0
      CHANNELS 3 Zrotation Xrotation Yrotation
      JOINT RightFoot
      {
        OFFSET 40.6238 0 0
        CHANNELS 3 Zrotation Xrotation Yrotation
        JOINT RightToeBase
        {
          OFFSET 12.7242 0 0
          CHANNELS 3 Zrotation Xrotation Yrotation
          End Site
          {
            OFFSET 0 0 0
          }
        }
      }
    }
  }
  JOINT Spine
  {
    OFFSET 0.165834 0.87714 6.61349
    CHANNELS 3 Zrotation Xrotation Yrotation
    JOINT Spine1
    {
      OFFSET 7.38963 1.71661e-005 0
      CHANNELS 3 Zrotation Xrotation Yrotation
      JOINT Spine2
      {
        OFFSET 11.9445 1.14441e-005 0
        CHANNELS 3 Zrotation Xrotation Yrotation
        JOINT Spine3
        {
          OFFSET 14.7254 4.19617e-005 0
          CHANNELS 3 Zrotation Xrotation Yrotation
          JOINT Spine4
          {
            OFFSET 10.9679 0 0
            CHANNELS 3 Zrotation Xrotation Yrotation
            JOINT RightShoulder
            {
              OFFSET 2.46616 -1.6653 3.69651
              CHANNELS 3 Zrotation Xrotation Yrotation
              JOINT RightArm
              {
                OFFSET 13.0012 0 0
                CHANNELS 3 Zrotation Xrotation Yrotation
                JOINT RightForeArm
                {
                  OFFSET 28.7848 1.62311e-005 0
                  CHANNELS 3 Zrotation Xrotation Yrotation
                  JOINT RightHand
                  {
                    OFFSET 26.5688 1.62095e-005 0
                    CHANNELS 3 Zrotation Xrotation Yrotation
                    End Site
                    {
                      OFFSET 0 0 0
                    }
                  }
                }
              }
            }
            JOINT LeftShoulder
            {
              OFFSET 2.38034 -1.29275 -3.7523
              CHANNELS 3 Zrotation Xrotation Yrotation
              JOINT LeftArm
              {
                OFFSET 16.3182 6.07031e-005 0
                CHANNELS 3 Zrotation Xrotation Yrotation
                JOINT LeftForeArm
                {
                  OFFSET 27.0901 0 0
                  CHANNELS 3 Zrotation Xrotation Yrotation
                  JOINT LeftHand
                  {
                    OFFSET 24.5451 1.51738e-005 0
                    CHANNELS 3 Zrotation Xrotation Yrotation
                    End Site
                    {
                      OFFSET 0 0 0
                    }
                  }
                }
              }
            }
            JOINT Neck
            {
              OFFSET 5.0226 -0.0266342 0
              CHANNELS 3 Zrotation Xrotation Yrotation
              JOINT Head
              {
                OFFSET 6.69364 2.86102e-005 0
                CHANNELS 3 Zrotation Xrotation Yrotation
                End Site
                {
                  OFFSET 0 0 0
                }
              }
            }
          }
        }
      }
    }
  }
}
MOTION
Frames:	10
Frame Time:	0.0416667
38.7609 95.8941 -330.556 -147.398 -84.0421 -144.217 -169.195 -19.9126 91.669 -17.4167 14.2974 -0.307803 86.8114 16.3645 -0.809081 25.2534 -4.69073 7.83832 179.201 21.3068 98.6543 -7.23362 -16.8369 2.0828 50.2021 6.80145 -2.14617 55.8514 -13.0097 -9.15079 -0.635865 7.98229 -90.2336 10.9077 -1.37395 -0.334959 -0.762512 -1.38736 -0.274162 -23.3021 -1.20976 -0.732453 -3.28944 -1.20976 -0.732457 88.729 -34.4606 -107.517 37.004 -2.89382 5.17602 -3.49307 -30.7666 -26.6279 -12.6613 -1.31176 0.735353 -89.8997 -49.0401 78.6716 -20.3378 1.5139 -33.4688 3.37078 21.0669 -6.62275 13.7423 -3.0085 -25.5282 8.86725 0.107936 -13.0226 -0.269878 3.03219 3.86647 
38.3693 96.3981 -319.345 -159.878 -83.9394 -155.227 -166.807 -25.0763 95.1811 -17.4731 16.2486 0.696913 75.7833 11.1156 0.168607 35.0738 0.345514 9.46901 179.851 24.1997 101.237 -27.8238 -8.20462 0.612837 60.4623 1.97794 -1.33428 23.0739 0.503504 9.55532 -0.750733 7.87646 -90.6022 11.1114 -1.77382 -1.02688 -0.558642 -1.81729 -0.947802 -23.097 -1.38323 -1.51252 -3.08431 -1.38322 -1.51252 89.3837 -33.6642 -106.588 37.6086 -1.46834 5.27286 8.76508 -31.4781 -5.26274 -18.6262 -0.529225 -9.00205 -89.9379 -51.3266 79.1013 -21.34 5.31903 -29.3465 0.531967 22.855 -2.95266 10.5481 -1.80666 -22.5124 9.49623 0.784744 -9.33867 -1.65872 2.88025 2.57494 
38.002 97.4301 -308.533 -169.717 -82.0147 -163.921 -165.609 -11.6775 100.428 -47.0669 23.5865 2.20217 60.3164 -0.118589 -0.459373 26.6345 -2.50158 4.42845 178.618 18.6539 102.942 -36.0002 -7.06561 1.3396 67.3809 -2.51734 -1.72216 19.6491 1.98337 7.93385 -0.605369 7.92195 -90.8303 11.018 -1.58987 -1.5011 -0.652789 -1.65439 -1.42968 -23.185 -1.06531 -1.90943 -3.17235 -1.0653 -1.90942 89.6376 -32.8827 -106.389 38.0665 -1.58534 4.60651 6.77773 -31.4309 -8.30908 -17.8159 -0.436843 -9.48518 -90.0344 -50.9486 78.8796 -23.6249 9.02385 -25.1867 -2.97588 27.6242 0.251416 6.90133 0.110279 -14.0368 8.27366 0.507216 -7.5141 -2.57233 2.10077 2.5193 
37.609 99.1483 -300.353 -177.361 -81.7695 -171.575 -168.226 6.34292 99.7007 -67.3328 19.8972 3.17392 62.3779 0.94268 2.41803 12.8146 -9.43405 2.81855 178.615 10.15 102.652 -31.737 -8.04423 1.23193 69.6959 -4.96002 -2.74235 22.5193 1.19462 6.6332 -0.282197 7.98756 -90.8141 10.8879 -0.938135 -1.53051 -0.783566 -1.00458 -1.48775 -23.3125 -0.434864 -1.74164 -3.29985 -0.434864 -1.74164 89.5753 -32.5564 -106.627 36.525 -3.43853 -0.788315 5.69347 -29.6352 -11.3011 -23.6956 -0.472586 -8.12044 -89.9104 -52.5021 79.3815 -23.1747 8.04499 -17.2229 -3.10545 28.4734 -0.00525171 4.80367 0.567979 -12.6142 7.85071 -0.540442 -6.18889 -1.86204 0.777133 1.7396 
38.0416 100.798 -292.537 -165.685 -81.5418 -163.616 -171.042 17.414 92.8863 -61.9846 7.11665 1.51379 69.8384 5.76942 3.28859 11.1072 -11.766 5.24867 177.017 1.47542 98.4609 -26.3721 -12.3822 -0.310097 71.502 -6.34145 -2.95117 24.1177 0.511073 6.79124 0.383158 7.96793 -90.2825 10.9395 0.632125 -0.622004 -0.731448 0.604146 -0.649218 -23.2673 0.789841 -0.403256 -3.2546 0.78983 -0.403272 89.2822 -32.0019 -107.395 34.7964 -5.21779 -6.55855 4.36384 -30.6325 -14.5412 -28.3552 -0.931962 -5.77226 -89.0252 -52.4505 80.6617 -21.4063 8.27208 -4.94493 -3.35396 21.5283 -0.00292975 4.05194 0.038044 -15.3232 4.70357 -1.55029 -4.01179 -0.171502 -0.802159 -0.026044 
39.0329 100.797 -284.467 -146.528 -81.9078 -147.773 -173.555 22.4582 87.7021 -38.448 0.406598 -1.01359 66.5577 4.13997 -0.679603 12.7545 -9.66542 3.20827 173.901 -3.01859 93.6236 -25.2576 -19.1828 -1.16766 75.0121 -8.86251 -4.30833 23.8872 0.80067 5.99051 0.980383 7.89288 -89.8923 11.0874 2.00158 0.021848 -0.581965 2.0006 -0.0663066 -23.1287 1.90243 0.622612 -3.11605 1.90243 0.622617 88.791 -29.9193 -109.179 31.9995 -6.32436 -11.705 1.69635 -32.8519 -19.0895 -27.4929 -0.623172 -7.69054 -87.4576 -52.5525 82.9673 -19.4803 8.18585 2.00233 -2.30382 16.0779 -3.34572 3.02657 -0.269524 -19.23 4.19615 -1.39643 1.75161 -0.324446 -1.77044 -3.21803 
39.762 99.1123 -275.005 -146.346 -80.6219 -148.256 -176.755 19.9617 86.1305 -11.7919 2.66453 -1.2757 62.557 3.18726 0.271384 14.396 -9.73369 5.09389 170.973 -10.9993 89.4225 -24.3823 -21.8685 -1.32419 78.7324 -11.8525 -4.98089 27.7018 -0.629759 5.38187 1.22946 8.0847 -89.9169 10.7063 2.48673 -0.0628635 -0.962247 2.48155 -0.172327 -23.5155 2.39058 0.687847 -3.50284 2.39058 0.687836 88.6316 -28.7844 -109.98 27.1457 -6.53224 -16.9661 -1.51993 -36.4203 -23.6413 -29.2066 -0.312171 -9.90103 -88.0046 -55.1914 82.6123 -17.9319 5.56825 5.43341 -2.00392 12.1506 -0.926706 1.72342 -0.18138 -18.7539 3.90394 -0.929956 6.49366 0.628096 -2.20127 -4.30362 
40.2296 97.3638 -264.227 -137.15 -79.4724 -140.564 -177.964 19.0578 84.3853 -7.27272 -1.90523 -1.55404 58.0197 0.705109 -1.63312 13.2371 -9.58305 3.5586 167.153 -17.1521 84.3934 -24.7287 -25.1281 -2.13037 79.7764 -13.6362 -5.55439 31.8515 -2.17783 4.47175 1.37284 8.08488 -89.7007 10.7035 2.87186 0.331561 -0.964302 2.88366 0.204732 -23.5216 2.63934 1.17992 -3.50897 2.63935 1.17991 88.0182 -29.4374 -110.91 26.4239 -4.96012 -19.8138 -3.02614 -35.8911 -24.286 -31.0692 -0.399493 -9.19128 -87.7282 -57.0592 83.2991 -18.0049 4.64045 6.80439 -1.75956 7.318 0.0456216 0.625505 0.0234942 -14.2027 4.22772 -0.34563 6.85711 1.3041 -1.70288 -3.70255 
40.4028 97.3997 -251.935 -126.492 -77.9137 -131.314 -175.561 21.9463 82.9823 -22.5804 1.3092 -3.19199 57.6319 -2.7196 -1.18328 7.96537 -11.1283 1.0103 165.363 -19.3709 80.2431 -29.2441 -27.4537 -5.47967 71.1622 -7.27805 -5.02375 40.0822 -5.71996 6.8345 1.58548 7.8593 -89.413 11.1457 3.42843 0.834248 -0.520891 3.46182 0.682369 -23.0836 3.0191 1.82684 -3.07093 3.0191 1.82683 87.9467 -30.1727 -110.727 31.2265 -5.90662 -17.1671 -1.2078 -34.4339 -21.9049 -30.9443 -0.317667 -9.22733 -87.3012 -58.0653 84.0407 -18.364 2.53064 5.29693 -0.112192 7.71803 -0.00294691 -1.55665 0.341915 -12.9524 4.89638 -0.451601 5.24596 -1.58782 -1.45809 -3.54456 
40.3578 98.7495 -239.912 -137.587 -77.5066 -144.08 -174.443 14.976 80.1569 -29.3598 3.10723 -3.93557 66.744 3.32584 -0.357858 9.08019 -12.4766 4.37603 166.899 -14.1138 78.5152 -47.6198 -28.6436 -8.84565 57.3854 2.75481 -0.230122 30.3477 -1.87581 6.8573 1.29751 7.93889 -89.1661 10.978 2.9692 1.37613 -0.69018 3.02688 1.24403 -23.239 2.4184 2.2051 -3.22638 2.41839 2.20509 88.0064 -29.9263 -110.718 36.4424 -8.39403 -12.7958 3.09019 -37.6805 -17.1919 -26.5373 -0.290186 -10.4684 -88.0465 -57.6233 82.9458 -18.3908 2.03691 0.589498 0.0124664 8.33872 -0.00726423 -1.446 0.345039 -13.1615 3.93144 -0.550247 4.2695 -1.35058 -1.35725 -3.88895 
